<svg width="250" height="244" viewBox="0 0 250 244" fill="none" xmlns="http://www.w3.org/2000/svg">
<g filter="url(#filter0_d)">
<rect x="89" y="9.22107" width="73" height="80.6842" rx="10" fill="white"/>
<rect x="105.905" width="38.4211" height="19.2105" rx="5" fill="#CCCCCC"/>
<path d="M110.977 39.0358C107.488 38.1291 106.366 37.1916 106.366 35.7316C106.366 34.0565 107.918 32.8885 110.516 32.8885C112.698 32.8885 113.789 33.7184 114.189 35.04C114.373 35.6548 114.88 36.1158 115.526 36.1158H115.987C117.001 36.1158 117.724 35.1169 117.37 34.164C116.725 32.3506 115.218 30.8445 112.821 30.2605V29.2C112.821 27.9245 111.791 26.8948 110.516 26.8948C109.24 26.8948 108.21 27.9245 108.21 29.2V30.2144C105.229 30.8598 102.832 32.7962 102.832 35.7624C102.832 39.3125 105.767 41.0798 110.055 42.1095C113.897 43.0316 114.665 44.384 114.665 45.8133C114.665 46.8737 113.912 48.5642 110.516 48.5642C107.98 48.5642 106.674 47.6575 106.166 46.3666C105.936 45.7672 105.413 45.3369 104.783 45.3369H104.353C103.323 45.3369 102.601 46.3819 102.985 47.3348C103.861 49.471 105.905 50.7312 108.21 51.223V52.2527C108.21 53.5282 109.24 54.5579 110.516 54.5579C111.791 54.5579 112.821 53.5282 112.821 52.2527V51.2537C115.818 50.6851 118.2 48.9485 118.2 45.7979C118.2 41.4333 114.465 39.9426 110.977 39.0358Z" fill="#57ADCF"/>
<line x1="127.616" y1="30.5421" x2="144.9" y2="30.5421" stroke="#57ADCF" stroke-width="5" stroke-linecap="round"/>
<line x1="127.616" y1="41.3" x2="144.9" y2="41.3" stroke="#57ADCF" stroke-width="5" stroke-linecap="round"/>
<line x1="127.616" y1="52.0579" x2="144.9" y2="52.0579" stroke="#57ADCF" stroke-width="5" stroke-linecap="round"/>
<line x1="105.332" y1="62.8158" x2="144.9" y2="62.8158" stroke="#57ADCF" stroke-width="5" stroke-linecap="round"/>
<line x1="105.332" y1="73.5737" x2="144.9" y2="73.5737" stroke="#57ADCF" stroke-width="5" stroke-linecap="round"/>
</g>
<g filter="url(#filter1_d)">
<path d="M69.752 159.305C68.9609 160.252 67.8428 160.989 66.3975 161.517C64.9521 162.034 63.3506 162.293 61.5928 162.293C59.7471 162.293 58.126 161.893 56.7295 161.092C55.3428 160.281 54.2686 159.109 53.5068 157.576C52.7549 156.043 52.3691 154.241 52.3496 152.171V150.721C52.3496 148.592 52.7061 146.751 53.4189 145.198C54.1416 143.636 55.1768 142.444 56.5244 141.624C57.8818 140.794 59.4688 140.379 61.2852 140.379C63.8145 140.379 65.792 140.984 67.2178 142.195C68.6436 143.396 69.4883 145.149 69.752 147.454H65.4746C65.2793 146.233 64.8447 145.34 64.1709 144.773C63.5068 144.207 62.5889 143.924 61.417 143.924C59.9229 143.924 58.7852 144.485 58.0039 145.608C57.2227 146.731 56.8271 148.401 56.8174 150.618V151.98C56.8174 154.217 57.2422 155.906 58.0918 157.049C58.9414 158.191 60.1865 158.763 61.8271 158.763C63.4775 158.763 64.6543 158.411 65.3574 157.708V154.031H61.3584V150.794H69.752V159.305ZM88.1582 152.757H79.7207V158.47H89.623V162H75.3262V140.672H89.5938V144.231H79.7207V149.314H88.1582V152.757ZM102.097 154.192H98.5957V162H94.2012V140.672H102.126C104.646 140.672 106.589 141.233 107.956 142.356C109.323 143.479 110.007 145.066 110.007 147.117C110.007 148.572 109.689 149.788 109.055 150.765C108.43 151.731 107.478 152.503 106.198 153.079L110.812 161.795V162H106.096L102.097 154.192ZM98.5957 150.633H102.141C103.244 150.633 104.099 150.354 104.704 149.798C105.31 149.231 105.612 148.455 105.612 147.469C105.612 146.463 105.324 145.672 104.748 145.096C104.182 144.52 103.308 144.231 102.126 144.231H98.5957V150.633ZM127.402 157.605H119.697L118.232 162H113.56L121.499 140.672H125.571L133.555 162H128.882L127.402 157.605ZM120.884 154.046H126.216L123.535 146.062L120.884 154.046ZM137.547 162V140.672H144.109C145.984 140.672 147.659 141.097 149.134 141.946C150.618 142.786 151.775 143.987 152.605 145.55C153.436 147.103 153.851 148.87 153.851 150.853V151.834C153.851 153.816 153.44 155.579 152.62 157.122C151.81 158.665 150.662 159.861 149.178 160.711C147.693 161.561 146.019 161.99 144.153 162H137.547ZM141.941 144.231V158.47H144.065C145.784 158.47 147.098 157.908 148.006 156.785C148.914 155.662 149.378 154.056 149.397 151.966V150.838C149.397 148.67 148.948 147.029 148.05 145.916C147.151 144.793 145.838 144.231 144.109 144.231H141.941ZM176.578 151.819C176.578 153.919 176.207 155.76 175.465 157.342C174.723 158.924 173.658 160.145 172.271 161.004C170.895 161.863 169.312 162.293 167.525 162.293C165.758 162.293 164.181 161.868 162.794 161.019C161.407 160.169 160.333 158.958 159.571 157.386C158.81 155.804 158.424 153.987 158.414 151.937V150.882C158.414 148.782 158.79 146.937 159.542 145.345C160.304 143.743 161.373 142.518 162.75 141.668C164.137 140.809 165.719 140.379 167.496 140.379C169.273 140.379 170.851 140.809 172.228 141.668C173.614 142.518 174.684 143.743 175.436 145.345C176.197 146.937 176.578 148.777 176.578 150.867V151.819ZM172.125 150.853C172.125 148.616 171.725 146.917 170.924 145.755C170.123 144.593 168.98 144.012 167.496 144.012C166.021 144.012 164.884 144.588 164.083 145.74C163.282 146.883 162.877 148.562 162.867 150.779V151.819C162.867 153.997 163.268 155.687 164.068 156.888C164.869 158.089 166.021 158.689 167.525 158.689C169 158.689 170.133 158.113 170.924 156.961C171.715 155.799 172.115 154.109 172.125 151.893V150.853ZM189.667 154.192H186.166V162H181.771V140.672H189.696C192.216 140.672 194.159 141.233 195.526 142.356C196.894 143.479 197.577 145.066 197.577 147.117C197.577 148.572 197.26 149.788 196.625 150.765C196 151.731 195.048 152.503 193.769 153.079L198.383 161.795V162H193.666L189.667 154.192ZM186.166 150.633H189.711C190.814 150.633 191.669 150.354 192.274 149.798C192.88 149.231 193.183 148.455 193.183 147.469C193.183 146.463 192.895 145.672 192.318 145.096C191.752 144.52 190.878 144.231 189.696 144.231H186.166V150.633ZM107.711 192V170.672H114.273C116.148 170.672 117.823 171.097 119.298 171.946C120.782 172.786 121.939 173.987 122.77 175.55C123.6 177.103 124.015 178.87 124.015 180.853V181.834C124.015 183.816 123.604 185.579 122.784 187.122C121.974 188.665 120.826 189.861 119.342 190.711C117.857 191.561 116.183 191.99 114.317 192H107.711ZM112.105 174.231V188.47H114.229C115.948 188.47 117.262 187.908 118.17 186.785C119.078 185.662 119.542 184.056 119.562 181.966V180.838C119.562 178.67 119.112 177.029 118.214 175.916C117.315 174.793 116.002 174.231 114.273 174.231H112.105ZM142.055 182.757H133.617V188.47H143.52V192H129.223V170.672H143.49V174.231H133.617V179.314H142.055V182.757ZM34.9648 211.819C34.9648 213.919 34.5938 215.76 33.8516 217.342C33.1094 218.924 32.0449 220.145 30.6582 221.004C29.2812 221.863 27.6992 222.293 25.9121 222.293C24.1445 222.293 22.5674 221.868 21.1807 221.019C19.7939 220.169 18.7197 218.958 17.958 217.386C17.1963 215.804 16.8105 213.987 16.8008 211.937V210.882C16.8008 208.782 17.1768 206.937 17.9287 205.345C18.6904 203.743 19.7598 202.518 21.1367 201.668C22.5234 200.809 24.1055 200.379 25.8828 200.379C27.6602 200.379 29.2373 200.809 30.6143 201.668C32.001 202.518 33.0703 203.743 33.8223 205.345C34.584 206.937 34.9648 208.777 34.9648 210.867V211.819ZM30.5117 210.853C30.5117 208.616 30.1113 206.917 29.3105 205.755C28.5098 204.593 27.3672 204.012 25.8828 204.012C24.4082 204.012 23.2705 204.588 22.4697 205.74C21.6689 206.883 21.2637 208.562 21.2539 210.779V211.819C21.2539 213.997 21.6543 215.687 22.4551 216.888C23.2559 218.089 24.4082 218.689 25.9121 218.689C27.3867 218.689 28.5195 218.113 29.3105 216.961C30.1016 215.799 30.502 214.109 30.5117 211.893V210.853ZM48.0537 214.192H44.5527V222H40.1582V200.672H48.083C50.6025 200.672 52.5459 201.233 53.9131 202.356C55.2803 203.479 55.9639 205.066 55.9639 207.117C55.9639 208.572 55.6465 209.788 55.0117 210.765C54.3867 211.731 53.4346 212.503 52.1553 213.079L56.7695 221.795V222H52.0527L48.0537 214.192ZM44.5527 210.633H48.0977C49.2012 210.633 50.0557 210.354 50.6611 209.798C51.2666 209.231 51.5693 208.455 51.5693 207.469C51.5693 206.463 51.2812 205.672 50.7051 205.096C50.1387 204.52 49.2646 204.231 48.083 204.231H44.5527V210.633ZM78.0615 214.896C77.8955 217.19 77.0459 218.997 75.5127 220.315C73.9893 221.634 71.9775 222.293 69.4775 222.293C66.7432 222.293 64.5898 221.375 63.0176 219.539C61.4551 217.693 60.6738 215.164 60.6738 211.951V210.647C60.6738 208.597 61.0352 206.79 61.7578 205.228C62.4805 203.665 63.5107 202.469 64.8486 201.639C66.1963 200.799 67.7588 200.379 69.5361 200.379C71.9971 200.379 73.9795 201.038 75.4834 202.356C76.9873 203.675 77.8564 205.525 78.0908 207.908H73.6963C73.5889 206.531 73.2031 205.535 72.5391 204.92C71.8848 204.295 70.8838 203.982 69.5361 203.982C68.0713 203.982 66.9727 204.51 66.2402 205.564C65.5176 206.609 65.1465 208.235 65.127 210.442V212.054C65.127 214.358 65.4736 216.043 66.167 217.107C66.8701 218.172 67.9736 218.704 69.4775 218.704C70.835 218.704 71.8457 218.396 72.5098 217.781C73.1836 217.156 73.5693 216.194 73.667 214.896H78.0615ZM71.0889 221.912L70.9277 222.762C72.3926 223.025 73.125 223.87 73.125 225.296C73.125 226.37 72.6758 227.22 71.7773 227.845C70.8887 228.47 69.6338 228.782 68.0127 228.782L67.9102 226.336C69.0039 226.336 69.5508 225.94 69.5508 225.149C69.5508 224.739 69.3848 224.456 69.0527 224.3C68.7305 224.153 68.2031 224.056 67.4707 224.007L67.9248 221.912H71.0889ZM94.9883 217.605H87.2832L85.8184 222H81.1455L89.085 200.672H93.1572L101.141 222H96.4678L94.9883 217.605ZM88.4697 214.046H93.8018L91.1211 206.062L88.4697 214.046ZM110.875 200.672L116.354 216.141L121.803 200.672H127.574V222H123.165V216.17L123.604 206.106L117.848 222H114.83L109.088 206.121L109.527 216.17V222H105.133V200.672H110.875ZM146.244 212.757H137.807V218.47H147.709V222H133.412V200.672H147.68V204.231H137.807V209.314H146.244V212.757ZM169.631 222H165.236L156.682 207.967V222H152.287V200.672H156.682L165.251 214.734V200.672H169.631V222ZM191.084 204.231H184.551V222H180.156V204.231H173.711V200.672H191.084V204.231ZM212.713 211.819C212.713 213.919 212.342 215.76 211.6 217.342C210.857 218.924 209.793 220.145 208.406 221.004C207.029 221.863 205.447 222.293 203.66 222.293C201.893 222.293 200.315 221.868 198.929 221.019C197.542 220.169 196.468 218.958 195.706 217.386C194.944 215.804 194.559 213.987 194.549 211.937V210.882C194.549 208.782 194.925 206.937 195.677 205.345C196.438 203.743 197.508 202.518 198.885 201.668C200.271 200.809 201.854 200.379 203.631 200.379C205.408 200.379 206.985 200.809 208.362 201.668C209.749 202.518 210.818 203.743 211.57 205.345C212.332 206.937 212.713 208.777 212.713 210.867V211.819ZM208.26 210.853C208.26 208.616 207.859 206.917 207.059 205.755C206.258 204.593 205.115 204.012 203.631 204.012C202.156 204.012 201.019 204.588 200.218 205.74C199.417 206.883 199.012 208.562 199.002 210.779V211.819C199.002 213.997 199.402 215.687 200.203 216.888C201.004 218.089 202.156 218.689 203.66 218.689C205.135 218.689 206.268 218.113 207.059 216.961C207.85 215.799 208.25 214.109 208.26 211.893V210.853ZM228.966 216.404C228.966 215.574 228.673 214.939 228.087 214.5C227.501 214.051 226.446 213.582 224.923 213.094C223.399 212.596 222.193 212.107 221.305 211.629C218.883 210.32 217.672 208.558 217.672 206.341C217.672 205.188 217.994 204.163 218.639 203.265C219.293 202.356 220.226 201.648 221.437 201.141C222.657 200.633 224.024 200.379 225.538 200.379C227.062 200.379 228.419 200.657 229.61 201.214C230.802 201.761 231.725 202.537 232.379 203.543C233.043 204.549 233.375 205.691 233.375 206.971H228.98C228.98 205.994 228.673 205.237 228.058 204.7C227.442 204.153 226.578 203.88 225.465 203.88C224.391 203.88 223.556 204.109 222.96 204.568C222.364 205.018 222.066 205.613 222.066 206.355C222.066 207.049 222.413 207.63 223.106 208.099C223.81 208.567 224.84 209.007 226.197 209.417C228.697 210.169 230.519 211.102 231.661 212.215C232.804 213.328 233.375 214.715 233.375 216.375C233.375 218.221 232.677 219.671 231.28 220.726C229.884 221.771 228.004 222.293 225.641 222.293C224 222.293 222.506 221.995 221.158 221.399C219.811 220.794 218.78 219.969 218.067 218.924C217.364 217.879 217.013 216.668 217.013 215.291H221.422C221.422 217.645 222.828 218.821 225.641 218.821C226.686 218.821 227.501 218.611 228.087 218.191C228.673 217.762 228.966 217.166 228.966 216.404Z" fill="white"/>
</g>
<defs>
<filter id="filter0_d" x="89" y="0" width="83" height="99.9053" filterUnits="userSpaceOnUse" color-interpolation-filters="sRGB">
<feFlood flood-opacity="0" result="BackgroundImageFix"/>
<feColorMatrix in="SourceAlpha" type="matrix" values="0 0 0 0 0 0 0 0 0 0 0 0 0 0 0 0 0 0 127 0" result="hardAlpha"/>
<feOffset dx="5" dy="5"/>
<feGaussianBlur stdDeviation="2.5"/>
<feComposite in2="hardAlpha" operator="out"/>
<feColorMatrix type="matrix" values="0 0 0 0 0 0 0 0 0 0 0 0 0 0 0 0 0 0 0.25 0"/>
<feBlend mode="normal" in2="BackgroundImageFix" result="effect1_dropShadow"/>
<feBlend mode="normal" in="SourceGraphic" in2="effect1_dropShadow" result="shape"/>
</filter>
<filter id="filter1_d" x="11.8008" y="135.379" width="236.574" height="108.403" filterUnits="userSpaceOnUse" color-interpolation-filters="sRGB">
<feFlood flood-opacity="0" result="BackgroundImageFix"/>
<feColorMatrix in="SourceAlpha" type="matrix" values="0 0 0 0 0 0 0 0 0 0 0 0 0 0 0 0 0 0 127 0" result="hardAlpha"/>
<feOffset dx="5" dy="5"/>
<feGaussianBlur stdDeviation="5"/>
<feComposite in2="hardAlpha" operator="out"/>
<feColorMatrix type="matrix" values="0 0 0 0 0 0 0 0 0 0 0 0 0 0 0 0 0 0 0.25 0"/>
<feBlend mode="normal" in2="BackgroundImageFix" result="effect1_dropShadow"/>
<feBlend mode="normal" in="SourceGraphic" in2="effect1_dropShadow" result="shape"/>
</filter>
</defs>
</svg>
